<svg width="23" height="21" viewBox="0 0 23 21" fill="none" xmlns="http://www.w3.org/2000/svg">
<path d="M20.0794 5.45816H19.8181V2.92066C19.8181 1.86163 18.9565 1 17.8974 1H3.9668C2.42955 1 1.16208 2.17582 1.01576 3.67527C0.99342 3.78123 1.00138 2.83714 1.00138 17.4599C1.00138 19.095 2.33163 20.4253 3.96676 20.4253H20.0793C21.1384 20.4253 22 19.5637 22 18.5046V7.37882C22 6.31979 21.1384 5.45816 20.0794 5.45816ZM3.9668 2.31929H17.8974C18.229 2.31929 18.4988 2.58908 18.4988 2.9207V5.4582H3.9668C3.08484 5.4582 2.36284 4.76093 2.32261 3.88874C2.3628 3.01651 3.0848 2.31929 3.9668 2.31929ZM20.0794 19.106H3.9668C3.05912 19.106 2.32067 18.3676 2.32067 17.4599V6.27749C2.79193 6.59317 3.35822 6.77741 3.9668 6.77741H20.0794C20.411 6.77741 20.6808 7.04719 20.6808 7.37882V10.053H15.7168C14.0262 10.053 12.6508 11.4284 12.6508 13.119C12.6508 14.8095 14.0262 16.1849 15.7168 16.1849H20.6808V18.5046C20.6808 18.8363 20.411 19.106 20.0794 19.106ZM20.6808 14.8657H15.7168C14.7536 14.8657 13.9701 14.0821 13.9701 13.119C13.9701 12.1559 14.7536 11.3723 15.7168 11.3723H20.6808V14.8657Z" fill="#25282B" stroke="#25282B" stroke-width="0.4"/>
</svg>
