<svg width="24" height="24" viewBox="0 0 24 24" fill="none" xmlns="http://www.w3.org/2000/svg">
<path d="M20.2943 15.3273L20.0335 16.0437C19.999 16.1365 19.9292 16.2119 19.8393 16.2534C19.7494 16.2949 19.6468 16.2992 19.5538 16.2653C19.4607 16.2314 19.3849 16.1621 19.3427 16.0725C19.3006 15.9829 19.2956 15.8803 19.3289 15.787L19.5901 15.0693C19.0665 14.8586 18.5607 14.6062 18.0775 14.3145L17.6602 14.949C17.6053 15.0314 17.52 15.0887 17.4229 15.1084C17.3258 15.1282 17.2249 15.1087 17.1422 15.0543C17.0595 14.9998 17.0016 14.9149 16.9813 14.818C16.9609 14.721 16.9798 14.62 17.0337 14.5369L17.4513 13.9019C16.9905 13.5758 16.557 13.2127 16.155 12.8163L15.6033 13.3368C15.5308 13.4044 15.4346 13.4405 15.3355 13.4373C15.2365 13.4341 15.1428 13.3919 15.0748 13.3198C15.0068 13.2477 14.9701 13.1516 14.9727 13.0526C14.9753 12.9536 15.017 12.8596 15.0887 12.7912L15.6392 12.2718C15.2673 11.847 14.9303 11.3928 14.6314 10.9138L13.9737 11.2935C13.8875 11.3433 13.7852 11.3567 13.6891 11.331C13.5931 11.3052 13.5111 11.2424 13.4614 11.1563C13.4117 11.0701 13.3982 10.9678 13.424 10.8717C13.4497 10.7756 13.5125 10.6937 13.5987 10.644L14.2564 10.2642C13.991 9.76594 13.7662 9.24701 13.5842 8.71252L12.8592 8.92957C12.7642 8.95713 12.6622 8.94606 12.5753 8.89876C12.4884 8.85146 12.4238 8.77176 12.3954 8.67701C12.367 8.58227 12.3772 8.48015 12.4238 8.39288C12.4703 8.30562 12.5495 8.24027 12.6439 8.21107L13.3705 7.99355C13.2282 7.44722 13.1306 6.89024 13.0786 6.32809L12.3198 6.37228C12.221 6.37727 12.1242 6.34299 12.0505 6.27693C11.9769 6.21087 11.9323 6.11837 11.9266 6.0196C11.9208 5.92082 11.9543 5.82378 12.0198 5.7496C12.0853 5.67543 12.1774 5.63015 12.2762 5.62363L13.0343 5.57948C13.0233 5.0152 13.0576 4.45095 13.137 3.89217L12.3848 3.75951C12.2879 3.74113 12.2022 3.68534 12.1461 3.60421C12.0901 3.52308 12.0683 3.42314 12.0854 3.32603C12.1025 3.22893 12.1571 3.14246 12.2375 3.08536C12.3179 3.02826 12.4175 3.00511 12.5149 3.02094L13.2656 3.15334C13.3685 2.67712 13.504 2.20856 13.6713 1.751C11.312 1.41331 8.90774 1.87749 6.84375 3.06913C4.77977 4.26078 3.17563 6.11087 2.28845 8.32287C2.76836 8.40678 3.24191 8.52369 3.70574 8.67276L3.96646 7.95636C4.00141 7.86415 4.07128 7.78942 4.16092 7.74835C4.25057 7.70729 4.35279 7.70318 4.44544 7.73693C4.5381 7.77067 4.61373 7.83955 4.65597 7.92866C4.69821 8.01776 4.70365 8.11992 4.67111 8.21301L4.4099 8.93075C4.9335 9.1414 5.43932 9.3938 5.92248 9.68551L6.33979 9.051C6.39486 8.96889 6.48013 8.91185 6.57704 8.8923C6.67396 8.87274 6.77467 8.89225 6.85727 8.94658C6.93987 9.00091 6.99767 9.08567 7.0181 9.1824C7.03852 9.27913 7.01992 9.38002 6.96633 9.4631L6.54868 10.0981C7.0095 10.4243 7.44304 10.7873 7.84502 11.1837L8.39669 10.6632C8.46922 10.596 8.56539 10.5601 8.66425 10.5634C8.7631 10.5667 8.85665 10.609 8.92452 10.6809C8.99238 10.7529 9.02908 10.8487 9.0266 10.9476C9.02413 11.0465 8.98269 11.1404 8.91132 11.2089L8.36082 11.7282C8.73274 12.1531 9.06974 12.6072 9.36856 13.0863L10.0263 12.7065C10.1125 12.6568 10.2148 12.6433 10.3109 12.669C10.4069 12.6948 10.4889 12.7576 10.5386 12.8438C10.5883 12.9299 10.6018 13.0323 10.576 13.1283C10.5503 13.2244 10.4875 13.3063 10.4013 13.356L9.74356 13.7358C10.009 14.2341 10.2338 14.753 10.4158 15.2875L11.1408 15.0705C11.2358 15.0429 11.3379 15.0539 11.4247 15.1012C11.5116 15.1485 11.5763 15.2283 11.6046 15.323C11.633 15.4178 11.6228 15.5199 11.5763 15.6072C11.5297 15.6944 11.4506 15.7598 11.3561 15.789L10.6295 16.0065C10.7718 16.5528 10.8694 17.1098 10.9214 17.6719L11.6802 17.6278C11.779 17.6228 11.8758 17.657 11.9495 17.7231C12.0231 17.7892 12.0677 17.8817 12.0734 17.9804C12.0792 18.0792 12.0457 18.1763 11.9802 18.2504C11.9147 18.3246 11.8226 18.3699 11.7238 18.3764L10.9657 18.4206C10.9767 18.9848 10.9424 19.5491 10.863 20.1079L11.6152 20.2405C11.7121 20.2589 11.7978 20.3147 11.8539 20.3958C11.9099 20.477 11.9317 20.5769 11.9146 20.674C11.8975 20.7711 11.8429 20.8576 11.7625 20.9147C11.6821 20.9718 11.5825 20.9949 11.4851 20.9791L10.7344 20.8467C10.6315 21.3229 10.496 21.7915 10.3287 22.249C12.688 22.5867 15.0923 22.1225 17.1562 20.9309C19.2202 19.7393 20.8244 17.8892 21.7116 15.6772C21.2316 15.5933 20.7581 15.4763 20.2943 15.3273Z" fill="white"/>
<path d="M14.0039 3.28353L14.7308 3.41172C14.8277 3.43007 14.9134 3.48586 14.9695 3.56699C15.0255 3.64813 15.0474 3.74808 15.0303 3.84521C15.0132 3.94234 14.9585 4.02882 14.8781 4.08592C14.7977 4.14302 14.698 4.16615 14.6007 4.15029L13.8756 4.02241C13.8059 4.52375 13.7753 5.02974 13.784 5.53582L14.5224 5.49281C14.6213 5.48783 14.718 5.5221 14.7917 5.58816C14.8654 5.65422 14.9099 5.74672 14.9157 5.8455C14.9214 5.94427 14.8879 6.04132 14.8224 6.11549C14.7569 6.18966 14.6648 6.23494 14.5661 6.24147L13.8278 6.28446C13.8758 6.78848 13.9634 7.28795 14.0897 7.77826L14.7995 7.56576C14.8945 7.53818 14.9966 7.54925 15.0834 7.59655C15.1703 7.64385 15.235 7.72355 15.2634 7.81831C15.2917 7.91306 15.2815 8.01519 15.235 8.10246C15.1884 8.18973 15.1093 8.25507 15.0148 8.28426L14.3037 8.49712C14.468 8.97611 14.6694 9.44157 14.906 9.88924L15.5473 9.51899C15.6334 9.46926 15.7358 9.45579 15.8318 9.48153C15.9279 9.50727 16.0098 9.57012 16.0595 9.65625C16.1093 9.74238 16.1228 9.84474 16.097 9.94081C16.0713 10.0369 16.0084 10.1188 15.9223 10.1685L15.281 10.5388C15.5504 10.9675 15.8528 11.3747 16.1855 11.7564L16.7253 11.2471C16.7979 11.1798 16.894 11.1439 16.9929 11.1472C17.0917 11.1506 17.1853 11.1928 17.2532 11.2647C17.321 11.3367 17.3577 11.4326 17.3552 11.5314C17.3528 11.6303 17.3113 11.7242 17.24 11.7927L16.701 12.3012C17.0625 12.6557 17.4513 12.9813 17.8637 13.2749L18.2701 12.657C18.3251 12.5748 18.4104 12.5176 18.5074 12.498C18.6044 12.4784 18.7052 12.4979 18.7878 12.5523C18.8705 12.6066 18.9283 12.6915 18.9487 12.7883C18.9691 12.8851 18.9504 12.9861 18.8966 13.0691L18.4902 13.6871C18.9241 13.9477 19.3776 14.1742 19.8466 14.3646L20.0984 13.6726C20.1334 13.5804 20.2032 13.5057 20.2929 13.4646C20.3825 13.4235 20.4848 13.4194 20.5774 13.4531C20.6701 13.4869 20.7457 13.5558 20.788 13.6449C20.8302 13.734 20.8356 13.8362 20.8031 13.9293L20.5507 14.6228C21.0137 14.7709 21.487 14.8845 21.9668 14.9626C22.403 13.6086 22.5507 12.1783 22.4002 10.7637C22.2498 9.34922 21.8046 7.98192 21.0933 6.75C20.3821 5.51808 19.4206 4.44887 18.2708 3.61132C17.121 2.77377 15.8084 2.18646 14.4177 1.88725C14.2455 2.34181 14.1072 2.80852 14.0039 3.28353V3.28353Z" fill="white"/>
<path d="M2.90673 17.25C3.61885 18.4812 4.58062 19.5499 5.73027 20.3873C6.87992 21.2248 8.19203 21.8125 9.5823 22.1128C9.75455 21.6582 9.89288 21.1915 9.99613 20.7165L9.26929 20.5883C9.1724 20.5699 9.08663 20.5142 9.03056 20.433C8.9745 20.3519 8.95266 20.2519 8.96976 20.1548C8.98687 20.0577 9.04154 19.9712 9.12195 19.9141C9.20236 19.857 9.30203 19.8339 9.39937 19.8497L10.1245 19.9776C10.1941 19.4763 10.2247 18.9703 10.216 18.4642L9.4776 18.5072C9.37886 18.5121 9.28219 18.4777 9.20863 18.4117C9.13506 18.3456 9.09057 18.2532 9.08482 18.1545C9.07906 18.0558 9.11252 17.9588 9.17792 17.8847C9.24331 17.8105 9.33534 17.7652 9.43398 17.7585L10.1723 17.7155C10.1242 17.2115 10.0367 16.7121 9.91039 16.2217L9.20051 16.4342C9.10552 16.4618 9.00348 16.4508 8.91661 16.4035C8.82974 16.3562 8.76507 16.2765 8.73669 16.1817C8.7083 16.0869 8.7185 15.9848 8.76506 15.8975C8.81162 15.8103 8.89077 15.7449 8.98528 15.7157L9.69632 15.5029C9.53206 15.0239 9.3307 14.5584 9.09405 14.1108L8.45276 14.481C8.36663 14.5307 8.26427 14.5442 8.1682 14.5185C8.07213 14.4927 7.99023 14.4299 7.9405 14.3438C7.89077 14.2576 7.87729 14.1553 7.90303 14.0592C7.92878 13.9631 7.99163 13.8812 8.07776 13.8315L8.71905 13.4612C8.44967 13.0325 8.14726 12.6254 7.81457 12.2436L7.27471 12.753C7.2022 12.8204 7.10599 12.8564 7.00705 12.8531C6.90811 12.8498 6.81447 12.8076 6.74654 12.7356C6.67862 12.6636 6.64193 12.5676 6.64446 12.4687C6.647 12.3697 6.68856 12.2757 6.76009 12.2073L7.29906 11.6988C6.93756 11.3443 6.5488 11.0187 6.13634 10.7251L5.72995 11.343C5.67493 11.4252 5.58964 11.4824 5.49267 11.502C5.39569 11.5216 5.29489 11.5021 5.21222 11.4478C5.12956 11.3934 5.07174 11.3085 5.05135 11.2117C5.03097 11.1149 5.04968 11.0139 5.10341 10.9309L5.50987 10.3129C5.07593 10.0523 4.62243 9.82582 4.15344 9.63545L3.90163 10.3274C3.86712 10.4202 3.79731 10.4956 3.70742 10.5371C3.61754 10.5786 3.51488 10.5829 3.42184 10.549C3.3288 10.5151 3.25295 10.4458 3.21082 10.3562C3.16869 10.2666 3.16371 10.164 3.19697 10.0707L3.44938 9.37717C2.98638 9.22908 2.51304 9.11552 2.03325 9.03742C1.59814 10.3916 1.45107 11.8217 1.6015 13.2361C1.75193 14.6504 2.19652 16.0177 2.90673 17.25V17.25Z" fill="white"/>
</svg>
